<?xml version="1.0" encoding="UTF-8"?>
<svg id="Camada_2" data-name="Camada 2" xmlns="http://www.w3.org/2000/svg" xmlns:xlink="http://www.w3.org/1999/xlink" viewBox="0 0 759.14 614.46">
  <defs>
    <style>
      .cls-1 {
        fill: url(#Unnamed_Pattern_5);
      }

      .cls-2 {
        fill: #4d4d4d;
      }

      .cls-3 {
        fill: #cb6600;
      }

      .cls-4 {
        fill: none;
      }
    </style>
    <pattern id="Unnamed_Pattern_5" data-name="Unnamed Pattern 5" x="0" y="0" width="32.65" height="32.65" patternTransform="translate(-931.86 -96)" patternUnits="userSpaceOnUse" viewBox="0 0 32.65 32.65">
      <g>
        <rect class="cls-4" y="0" width="32.65" height="32.65"/>
        <rect class="cls-3" x="0" y="0" width="32.65" height="32.65"/>
      </g>
    </pattern>
  </defs>
  <g id="Camada_1-2" data-name="Camada 1">
    <g>
      <path class="cls-2" d="M84.32,200.79V45.23c0-.76,.61-1.37,1.36-1.37h46.52c12.11,0,21.93-9.82,21.93-21.93S144.32,0,132.21,0h-46.52c-24.93,0-45.22,20.29-45.22,45.23V200.79c0,2.74-1.11,5.42-3.06,7.38l-30.98,30.98c-8.57,8.57-8.57,22.44,0,31.01l30.99,31.01c1.94,1.94,3.06,4.62,3.06,7.37v155.57c0,24.94,20.29,45.23,45.22,45.23h46.52c12.11,0,21.93-9.82,21.93-21.93s-9.81-21.93-21.93-21.93h-46.52c-.75,0-1.36-.61-1.36-1.37v-155.57c0-14.3-5.8-28.3-15.9-38.39l-15.48-15.49,15.47-15.46c10.11-10.11,15.92-24.1,15.92-38.4Z"/>
      <path class="cls-2" d="M752.72,239.15l-30.99-30.99c-1.94-1.94-3.05-4.62-3.05-7.37V45.23c0-24.94-20.29-45.23-45.22-45.23h-46.53c-12.11,0-21.93,9.82-21.93,21.93s9.81,21.93,21.93,21.93h46.53c.75,0,1.36,.61,1.36,1.37V200.79c0,14.31,5.8,28.3,15.91,38.39l15.48,15.48-15.47,15.47c-10.11,10.11-15.92,24.1-15.92,38.4v155.57c0,.76-.61,1.37-1.36,1.37h-46.53c-12.11,0-21.93,9.82-21.93,21.93s9.81,21.93,21.93,21.93h46.53c24.93,0,45.22-20.29,45.22-45.23v-155.57c0-2.74,1.11-5.42,3.07-7.38l30.98-30.99c8.56-8.57,8.56-22.44,0-31.01Z"/>
      <path class="cls-3" d="M548.61,570.6h-59.46v-61.27h55.37c12.11,0,21.93-9.82,21.93-21.93s-9.82-21.93-21.93-21.93H214.62c-12.11,0-21.93,9.82-21.93,21.93s9.82,21.93,21.93,21.93h55.37v61.27h-59.46c-12.11,0-21.93,9.82-21.93,21.93s9.82,21.93,21.93,21.93h338.08c12.11,0,21.93-9.82,21.93-21.93s-9.82-21.93-21.93-21.93Zm-234.76,0v-61.27h131.45v61.27h-131.45Z"/>
      <path class="cls-3" d="M214.62,43.86h329.9c12.11,0,21.93-9.82,21.93-21.93s-9.82-21.93-21.93-21.93H214.62c-12.11,0-21.93,9.82-21.93,21.93s9.82,21.93,21.93,21.93Z"/>
      <g>
        <path class="cls-1" d="M168.08,212.34h-51.95v-46.38h163.72v46.38h-51.95v131.02h-59.81V212.34Z"/>
        <path class="cls-1" d="M295.3,165.96h59.81v177.4h-59.81V165.96Z"/>
        <path class="cls-1" d="M550.26,232.87c0,41.05-31.42,66.91-80.84,66.91h-25.6v43.59h-59.81V165.96h85.41c49.42,0,80.84,25.85,80.84,66.91Zm-60.32,0c0-12.93-7.86-20.78-24.33-20.78h-21.8v41.56h21.8c16.47,0,24.33-7.86,24.33-20.78Z"/>
        <path class="cls-1" d="M569.78,165.96h59.81v177.4h-59.81V165.96Z"/>
      </g>
    </g>
  </g>
</svg>